<svg width="8px" height="13px" viewBox="0 0 8 13" version="1.1" xmlns="http://www.w3.org/2000/svg" xmlns:xlink="http://www.w3.org/1999/xlink">
    <!-- Generator: Sketch 46.2 (44496) - http://www.bohemiancoding.com/sketch -->
    <desc>Created with Sketch.</desc>
    <defs></defs>
    <g id="Styleguide" stroke="none" stroke-width="1" fill="none" fill-rule="evenodd">
        <g transform="translate(-221.000000, -633.000000)" id="UI_icons" fill="#FFFFFF">
            <g transform="translate(150.000000, 527.000000)">
                <g id="Icons" transform="translate(0.000000, 87.000000)">
                    <g id="arrow_left" transform="translate(50.000000, 0.000000)">
                        <rect id="bg" opacity="0" x="0" y="0" width="50" height="50"></rect>
                        <path d="M28.3221664,26.0179777 C28.3221664,26.0179777 29,25.490693 29,25.0310462 C29,24.5903089 28.3221664,24.0426601 28.3221664,24.0426601 L28.3119844,24.0332053 L22.9314984,19.2607332 C22.4907612,18.9130889 21.7700175,18.9130889 21.3300075,19.2607332 C20.8899975,19.6091048 20.8899975,20.1792995 21.3300075,20.5269438 L25.8348372,25.0303189 L21.3300075,29.5329667 C20.8899975,29.8820655 20.8899975,30.4508057 21.3300075,30.7999045 C21.7700175,31.1475488 22.4907612,31.1475488 22.9314984,30.7999045 L28.3119844,26.0274324 L28.3221664,26.0179777" transform="translate(25.000000, 25.030319) scale(-1, 1) translate(-25.000000, -25.030319) "></path>
                    </g>
                </g>
            </g>
        </g>
    </g>
</svg>
