<svg width="3px" height="14px" viewBox="0 0 3 14" version="1.1" xmlns="http://www.w3.org/2000/svg" xmlns:xlink="http://www.w3.org/1999/xlink">
    <!-- Generator: Sketch 46.2 (44496) - http://www.bohemiancoding.com/sketch -->
    <desc>Created with Sketch.</desc>
    <defs></defs>
    <g id="Styleguide" stroke="none" stroke-width="1" fill="none" fill-rule="evenodd">
        <g transform="translate(-374.000000, -632.000000)" id="UI_icons" fill="#FFFFFF">
            <g transform="translate(150.000000, 527.000000)">
                <g id="Icons" transform="translate(0.000000, 87.000000)">
                    <g id="error" transform="translate(200.000000, 0.000000)">
                        <path d="M27,18 L27,23.4824281 C27,24.0702905 26.9620693,24.6533517 26.8862069,25.2316294 C26.8103444,25.809907 26.7103454,26.399358 26.5862069,27 L24.4137931,27 C24.2896546,26.399358 24.1896556,25.809907 24.1137931,25.2316294 C24.0379307,24.6533517 24,24.0702905 24,23.4824281 L24,18 L27,18 Z M24,30.5 C24,30.2894726 24.0383519,30.0935682 24.1150568,29.9122807 C24.1917617,29.7309932 24.2968743,29.5731001 24.4303977,29.4385965 C24.5639211,29.3040929 24.72159,29.1973688 24.9034091,29.1184211 C25.0852282,29.0394733 25.2840898,29 25.5,29 C25.7102283,29 25.9062491,29.0394733 26.0880682,29.1184211 C26.2698873,29.1973688 26.4289766,29.3040929 26.5653409,29.4385965 C26.7017052,29.5731001 26.8082383,29.7309932 26.8849432,29.9122807 C26.9616481,30.0935682 27,30.2894726 27,30.5 C27,30.7105274 26.9616481,30.9078938 26.8849432,31.0921053 C26.8082383,31.2763167 26.7017052,31.4356718 26.5653409,31.5701754 C26.4289766,31.704679 26.2698873,31.8099411 26.0880682,31.8859649 C25.9062491,31.9619887 25.7102283,32 25.5,32 C25.2840898,32 25.0852282,31.9619887 24.9034091,31.8859649 C24.72159,31.8099411 24.5639211,31.704679 24.4303977,31.5701754 C24.2968743,31.4356718 24.1917617,31.2763167 24.1150568,31.0921053 C24.0383519,30.9078938 24,30.7105274 24,30.5 L24,30.5 Z"></path>
                    </g>
                </g>
            </g>
        </g>
    </g>
</svg>
