<svg width="11px" height="20px" viewBox="0 0 11 20" version="1.1" xmlns="http://www.w3.org/2000/svg" xmlns:xlink="http://www.w3.org/1999/xlink">
    <!-- Generator: Sketch 46.2 (44496) - http://www.bohemiancoding.com/sketch -->
    <desc>Created with Sketch.</desc>
    <defs></defs>
    <g id="Styleguide" stroke="none" stroke-width="1" fill-rule="evenodd">
        <g transform="translate(-270.000000, -679.000000)" id="UI_icons">
            <g transform="translate(150.000000, 527.000000)">
                <g id="Icons" transform="translate(0.000000, 87.000000)">
                    <g id="facebook" transform="translate(100.000000, 50.000000)">
                        <rect id="bg" opacity="0" x="0" y="0" width="50" height="50"></rect>
                        <path d="M27.8122822,15 C24.8985154,15 23.0155114,16.9318998 23.0155114,19.922027 L23.0155114,22.191411 L20.4078108,22.191411 C20.1824745,22.191411 20,22.3740936 20,22.5994299 L20,25.8875087 C20,26.112845 20.1826826,26.2953195 20.4078108,26.2953195 L23.0155114,26.2953195 L23.0155114,34.5921892 C23.0155114,34.8175255 23.1979859,35 23.4233222,35 L26.8256297,35 C27.0509659,35 27.2334405,34.8173174 27.2334405,34.5921892 L27.2334405,26.2953195 L30.2824506,26.2953195 C30.5077869,26.2953195 30.6902614,26.112845 30.6902614,25.8875087 L30.6915098,22.5994299 C30.6915098,22.4912352 30.64844,22.3876179 30.5720795,22.3110494 C30.495719,22.2344808 30.3916857,22.191411 30.2834909,22.191411 L27.2334405,22.191411 L27.2334405,20.2676259 C27.2334405,19.3429772 27.4537832,18.8735786 28.6582816,18.8735786 L30.4054181,18.8729544 C30.6305463,18.8729544 30.8130208,18.6902718 30.8130208,18.4651436 L30.8130208,15.4119722 C30.8130208,15.187052 30.6307543,15.0045775 30.4058342,15.0041613 L27.8122822,15 Z"></path>
                    </g>
                </g>
            </g>
        </g>
    </g>
</svg>
