<svg width="20px" height="20px" viewBox="0 0 20 20" version="1.1" xmlns="http://www.w3.org/2000/svg" xmlns:xlink="http://www.w3.org/1999/xlink">
    <!-- Generator: Sketch 46.2 (44496) - http://www.bohemiancoding.com/sketch -->
    <desc>Created with Sketch.</desc>
    <defs></defs>
    <g id="Styleguide" stroke="none" stroke-width="1" fill-rule="evenodd">
        <g transform="translate(-365.000000, -679.000000)" id="UI_icons">
            <g transform="translate(150.000000, 527.000000)">
                <g id="Icons" transform="translate(0.000000, 87.000000)">
                    <g id="instagram" transform="translate(200.000000, 50.000000)">
                        <rect id="bg" opacity="0" x="0" y="0" width="50" height="50"></rect>
                        <path d="M17.5670722,15 L32.4329278,15 C33.8447046,15 34.9997947,16.0452282 34.9997947,17.5668669 L34.9997947,32.4331331 C34.9997947,33.9547718 33.8447046,35 32.4329278,35 L17.5670722,35 C16.1548847,35 15,33.9547718 15,32.4331331 L15,17.5668669 C15,16.0452282 16.1548847,15 17.5670722,15 L17.5670722,15 L17.5670722,15 Z M29.5691257,17.2220853 C29.0738231,17.2220853 28.6690795,17.6340759 28.6690795,18.1382003 L28.6690795,20.3308176 C28.6690795,20.8347331 29.0738231,21.2469326 29.5691257,21.2469326 L31.8296114,21.2469326 C32.324914,21.2469326 32.7300683,20.8347331 32.7300683,20.3308176 L32.7300683,18.1382003 C32.7300683,17.6340759 32.324914,17.2220853 31.8296114,17.2220853 L29.5691257,17.2220853 L29.5691257,17.2220853 Z M32.7395143,23.4579291 L30.9792597,23.4579291 C31.145798,24.0016941 31.2359464,24.5776991 31.2359464,25.1736229 C31.2359464,28.5002824 28.4522306,31.19693 25.0189948,31.19693 C21.5859644,31.19693 18.8026593,28.5002824 18.8026593,25.1736229 C18.8026593,24.5772884 18.8926023,24.0014888 19.059346,23.4579291 L17.222496,23.4579291 L17.222496,31.9062067 C17.222496,32.3433955 17.5802146,32.7013194 18.0176087,32.7013194 L31.9448124,32.7013194 C32.3822065,32.7013194 32.739925,32.3436008 32.739925,31.9062067 L32.739925,23.4579291 L32.7395143,23.4579291 L32.7395143,23.4579291 Z M25.0187895,21.0645824 C22.8006058,21.0645824 21.0021562,22.8069716 21.0021562,24.9565686 C21.0021562,27.1061656 22.8006058,28.8485549 25.0187895,28.8485549 C27.2371785,28.8485549 29.0358335,27.1061656 29.0358335,24.9565686 C29.0358335,22.8069716 27.2373838,21.0645824 25.0187895,21.0645824 L25.0187895,21.0645824 Z"></path>
                    </g>
                </g>
            </g>
        </g>
    </g>
</svg>
