<svg width="22px" height="34px" viewBox="0 0 22 34" version="1.1" xmlns="http://www.w3.org/2000/svg" xmlns:xlink="http://www.w3.org/1999/xlink">
    <!-- Generator: Sketch 46.2 (44496) - http://www.bohemiancoding.com/sketch -->
    <desc>Created with Sketch.</desc>
    <defs></defs>
    <g id="Styleguide" stroke="none" stroke-width="1" fill-rule="evenodd">
        <g transform="translate(-414.000000, -672.000000)" id="UI_icons" fill-rule="nonzero">
            <g transform="translate(150.000000, 527.000000)">
                <g id="Icons" transform="translate(0.000000, 87.000000)">
                    <g id="mouse" transform="translate(250.000000, 50.000000)">
                        <path d="M14,18.4965203 C14,12.7022163 18.9319743,8 25,8 C31.0763985,8 36,12.6961584 36,18.4965203 L36,31.5034797 C36,37.2977837 31.0680257,42 25,42 C18.9236015,42 14,37.3038416 14,31.5034797 L14,18.4965203 Z M16,18.4965203 L16,31.5034797 C16,36.2004793 20.0294373,40 25,40 C29.9604487,40 34,36.1959783 34,31.5034797 L34,18.4965203 C34,13.7995207 29.9705627,10 25,10 C20.0395513,10 16,13.8040217 16,18.4965203 Z M23,18.9981014 C23,17.8945804 23.8877296,17 25,17 C26.1045695,17 27,17.8867064 27,18.9981014 L27,23.0018986 C27,24.1054196 26.1122704,25 25,25 C23.8954305,25 23,24.1132936 23,23.0018986 L23,18.9981014 Z"></path>
                    </g>
                </g>
            </g>
        </g>
    </g>
</svg>
