<svg width="25px" height="20px" viewBox="0 0 25 20" version="1.1" xmlns="http://www.w3.org/2000/svg" xmlns:xlink="http://www.w3.org/1999/xlink">
    <!-- Generator: Sketch 46.2 (44496) - http://www.bohemiancoding.com/sketch -->
    <desc>Created with Sketch.</desc>
    <defs></defs>
    <g id="Styleguide" stroke="none" stroke-width="1" fill-rule="evenodd">
        <g transform="translate(-313.000000, -679.000000)" id="UI_icons">
            <g transform="translate(150.000000, 527.000000)">
                <g id="Icons" transform="translate(0.000000, 87.000000)">
                    <g id="twitter" transform="translate(150.000000, 50.000000)">
                        <rect id="bg" opacity="0" x="0" y="0" width="50" height="50"></rect>
                        <path d="M37.658968,17.3663147 C36.7513795,17.7678685 35.7775501,18.0401976 34.7543625,18.1617782 C35.7991066,17.5370988 36.5988321,16.5462696 36.9778636,15.3692476 C35.9978695,15.9477409 34.9161368,16.3678013 33.7635297,16.5955133 C32.8405494,15.6123685 31.527699,15 30.0715281,15 C27.2778881,15 25.0127648,17.261712 25.0127648,20.0496159 C25.0127648,20.4450142 25.0574492,20.8311994 25.1437557,21.2004872 C20.9402007,20.9896725 17.212782,18.9787656 14.7180721,15.923119 C14.2819864,16.6678099 14.0339055,17.5355297 14.0339055,18.4617868 C14.0339055,20.2142445 14.9276334,21.7605141 16.2836371,22.6651667 C15.4546189,22.6374872 14.6749188,22.4097751 13.9923236,22.0312742 L13.9923236,22.0943577 C13.9923236,24.5406935 15.7366261,26.5823777 18.049496,27.0470551 C17.6257398,27.1609112 17.1788961,27.2239947 16.7166202,27.2239947 C16.389969,27.2239947 16.0740758,27.1916885 15.7643474,27.1301338 C16.4084229,29.1379831 18.2760205,30.5980761 20.4887635,30.6381068 C18.7583217,31.9920683 16.5764023,32.7967448 14.2065185,32.7967448 C13.7981944,32.7967448 13.3959947,32.772123 13,32.7275059 C15.2389332,34.1630173 17.8969889,35 20.7538076,35 C30.0592792,35 35.1458041,27.3040157 35.1458041,20.6296782 L35.1288409,19.9757905 C36.1226957,19.2679922 36.9824973,18.3787081 37.658968,17.3663147 L37.658968,17.3663147 Z"></path>
                    </g>
                </g>
            </g>
        </g>
    </g>
</svg>
